<svg
  xmlns:svg="http://www.w3.org/2000/svg"
  xmlns="http://www.w3.org/2000/svg"
  xmlns:xlink="http://www.w3.org/1999/xlink"
  viewBox="128 192 768 384"
  version="1.1"
>
  <g fill="rgb(143, 185, 254)" aria-label="IDOLA">
    <path d="M 403.71369,-50.4 V 0 h 3.672 v -50.4 z" transform="translate(0 333.64) translate(227.00899999999996 -0.03999999999999915) scale(2) translate(-403.71369 50.4)"></path>
    <path d="m 468.29206,-38.16 c -2.304,-3.816 -5.472,-6.768 -9.504,-9 -4.032,-2.16 -8.712,-3.24 -13.896,-3.24 h -19.944 v 3.312 h 19.656 c 4.608,0 8.712,0.936 12.312,2.808 3.528,1.872 6.264,4.464 8.208,7.704 1.872,3.312 2.88,7.128 2.88,11.376 0,4.32 -1.008,8.064 -2.88,11.376 -1.944,3.312 -4.68,5.904 -8.208,7.776 -3.6,1.872 -7.704,2.736 -12.312,2.736 h -15.984 V -25.2 h -3.672 V 0 h 19.944 c 5.184,0 9.864,-1.08 13.896,-3.24 4.032,-2.16 7.2,-5.112 9.504,-8.928 2.232,-3.816 3.384,-8.136 3.384,-13.032 0,-4.824 -1.152,-9.144 -3.384,-12.96 z" transform="translate(0 333.64) translate(299.4777399999999 -0.03999999999999915) scale(2) translate(-424.94806 50.4)"></path>
    <path d="m 492.42444,-2.952 c 3.96,2.232 8.424,3.312 13.392,3.312 4.896,0 9.36,-1.08 13.392,-3.312 3.96,-2.16 7.056,-5.256 9.36,-9.144 2.304,-3.888 3.456,-8.208 3.456,-13.104 0,-4.824 -1.152,-9.216 -3.456,-13.104 -2.304,-3.888 -5.4,-6.912 -9.36,-9.144 -4.032,-2.16 -8.496,-3.312 -13.392,-3.312 -4.968,0 -9.432,1.152 -13.392,3.384 -4.032,2.232 -7.128,5.256 -9.432,9.144 -2.304,3.888 -3.384,8.28 -3.384,13.032 0,4.824 1.08,9.144 3.384,13.032 2.304,3.888 5.4,6.984 9.432,9.216 z m 24.84,-2.952 c -3.456,1.944 -7.272,2.88 -11.448,2.88 -4.248,0 -8.064,-0.936 -11.52,-2.88 -3.456,-1.872 -6.12,-4.536 -8.064,-7.92 -2.016,-3.384 -2.952,-7.2 -2.952,-11.376 0,-4.176 0.936,-7.92 2.952,-11.304 1.944,-3.384 4.608,-6.048 8.064,-7.992 3.456,-1.872 7.272,-2.88 11.52,-2.88 4.176,0 7.992,1.008 11.448,2.88 3.384,1.944 6.048,4.608 8.064,7.992 1.944,3.384 2.952,7.128 2.952,11.304 0,4.176 -1.008,7.992 -2.952,11.376 -2.016,3.384 -4.68,6.048 -8.064,7.92 z" transform="translate(0 333.64) translate(438.7984999999999 -0.759999999999998) scale(2) translate(-479.60844 50.76)"></path>
    <path d="M 544.76056,-50.4 V 0 h 32.688 v -3.312 h -29.016 V -50.4 Z" transform="translate(0 333.64) translate(599.1027400000002 -0.03999999999999915) scale(2) translate(-544.76056 50.4)"></path>
    <path d="m 605.52069,-50.4 h -3.672 L 578.66469,0 h 3.96 l 21.024,-46.368 21.096,46.368 h 3.96 z" transform="translate(0 333.64) translate(696.911 -0.03999999999999915) scale(2) translate(-578.66469 50.4)"></path>
  </g>
</svg>
